<?xml version="1.0" encoding="UTF-8"?><svg id="Layer_1" xmlns="http://www.w3.org/2000/svg" width="61.23035207" height="55.03779602" viewBox="0 0 61.23035207 55.03779602"><defs><style>.cls-1{fill:#b84233;}</style></defs><path class="cls-1" d="M60.5302151,47.13838196L35.20727808,2.66944885c-2.02685547-3.55926514-7.15734863-3.55926514-9.1842041,0L.70013697,47.13838196c-2.00610352,3.52288818.53808594,7.89941406,4.59210205,7.89941406h50.64587402c4.05401611,0,6.59820557-4.37652588,4.59210205-7.89941406ZM33.14154322,44.65736389c-.74609375.7734375-1.76806641,1.16015625-3.06591797,1.16015625-1.27050781,0-2.23681641-.33886719-2.89941406-1.01464844-.66308594-.67675781-.99414062-1.65039062-.99414062-2.92089844,0-1.32519531.37890625-2.375,1.13916016-3.1484375.75927734-.77246094,1.78759766-1.16015625,3.0859375-1.16015625,1.21484375,0,2.16015625.34570312,2.83789062,1.03613281.67578125.69042969,1.01464844,1.65722656,1.01464844,2.89941406,0,1.32617188-.37304688,2.37597656-1.11816406,3.1484375ZM33.18255885,34.71498108l-4.51513672.66308594-.78710938-.74511719-.70410156-15.65917969.70410156-.91113281,6.50341797-.45556641.953125.95263672-2.15429688,16.15527344Z"/></svg>