<?xml version="1.0" encoding="UTF-8"?><svg id="Layer_1" xmlns="http://www.w3.org/2000/svg" viewBox="0 0 147.48498535 128.55664062"><defs><style>.cls-1{fill:#231f20;}</style></defs><path class="cls-1" d="M64.95349121,105.640625c2.14807129,2.22753906,3.22399902,5.33691406,3.22399902,9.32763672,0,4.14550781-1.15148926,7.44921875-3.4543457,9.90332031-2.30297852,2.45800781-5.45214844,3.68505859-9.44287109,3.68505859-3.99414062,0-7.10375977-1.15136719-9.32727051-3.45507812-2.22790527-2.30273438-3.33947754-5.44775391-3.33947754-9.44238281,0-3.99072266,1.1875-7.21533203,3.56982422-9.67285156,2.37854004-2.45410156,5.64257812-3.68505859,9.78759766-3.68505859,3.83642578,0,6.83056641,1.11572266,8.98254395,3.33935547ZM115.10129003,102.30126953c-4.1451416,0-7.40905762,1.23095703-9.78747559,3.68505859-2.38232422,2.45751953-3.56994629,5.68212891-3.56994629,9.67285156,0,3.99462891,1.1114502,7.13964844,3.33947754,9.44238281,2.22363281,2.30371094,5.33325195,3.45507812,9.32739258,3.45507812,3.99072266,0,7.13964844-1.22705078,9.44262695-3.68505859,2.30297852-2.45410156,3.45446777-5.7578125,3.45446777-9.90332031,0-3.99072266-1.0760498-7.10009766-3.22399902-9.32763672-2.15197754-2.22363281-5.14624023-3.33935547-8.98254395-3.33935547ZM144.71875,19.40380859h-14.11242676l-.00744629.02636719-82.96409824-.02636719,4.37463379,15.33544922,1.91235352,1.23339844,72.03380039-.1328125-11.2199707,39.65039062-60.32788086-.02734375L33.33691406.99804688l-1.19775391-.99804688H.59863281l-.59863281,13.17529297.79833984.99804688h18.16552734l22.95654297,77.85253906h85.31054688l20.25402832-68.6875-2.76623535-3.93457031Z"/></svg>