<?xml version="1.0" encoding="UTF-8"?><svg id="Layer_1" xmlns="http://www.w3.org/2000/svg" width="124.77056885" height="128.14508057" viewBox="0 0 124.77056885 128.14508057"><defs><style>.cls-1{fill:#231f20;}</style></defs><path class="cls-1" d="M109.03509521,16.29846191C98.53192139,5.44549561,83.91833496,0,65.19384766,0,44.96313477,0,29.0322876,6.00793457,17.42327881,17.98571777,5.7958374,29.98016357,0,45.71856689,0,65.19616699c0,19.4967041,5.42529297,34.84667969,16.29907227,46.08563232,10.85229492,11.24377441,26.02947998,16.86328125,45.52374268,16.86328125,19.4776001,0,34.84783936-5.9888916,46.0880127-17.98571777,11.23962402-11.9777832,16.85974121-28.10229492,16.85974121-48.33532715,0-19.4776001-5.25134277-34.65362549-15.73547363-45.52557373ZM101.90490723,73.57617188h-30.86132812v31.04980469l-15.24316406,1.12890625-1.88183594-1.50488281v-30.67382812h-30.67285156l-1.69384766-1.69335938,1.31738281-15.2421875h31.04931641v-31.23779297l15.2421875-1.31738281,1.8828125,1.88183594v30.67333984h30.484375l1.69335938,1.69335938-1.31640625,15.2421875Z"/></svg>